<svg width="128" height="128" viewBox="0 0 128 128" fill="none" xmlns="http://www.w3.org/2000/svg">
<mask id="mask0_8_2" style="mask-type:alpha" maskUnits="userSpaceOnUse" x="19" y="21" width="89" height="85">
<rect x="24" y="72" width="80" height="10" rx="5" fill="url(#paint0_linear_8_2)"/>
<path d="M22.4045 89.7864C23.3573 86.928 26.0323 85 29.0453 85H98.7199C101.845 85 104.592 87.0718 105.451 90.077L107.451 97.077C108.728 101.549 105.371 106 100.72 106H26.712C21.9341 106 18.5603 101.319 20.0712 96.7864L22.4045 89.7864Z" fill="url(#paint1_linear_8_2)"/>
<g clip-path="url(#clip0_8_2)">
<path d="M82.625 33.75C83.7937 33.75 84.7949 34.1661 85.6279 34.999C86.4609 35.832 86.8764 36.8327 86.875 38V59.25C86.875 60.4188 86.4595 61.4199 85.6279 62.2529C84.7963 63.0859 83.7952 63.5014 82.625 63.5H76.25V65.625C76.25 66.227 76.0456 66.7317 75.6377 67.1396C75.2297 67.5476 74.7257 67.7514 74.125 67.75H63.5C62.8979 67.75 62.3939 67.5457 61.9873 67.1377C61.5807 66.7297 61.3764 66.2257 61.375 65.625V63.5H55C53.8313 63.5 52.8306 63.0845 51.999 62.2529C51.1675 61.4214 50.7514 60.4201 50.75 59.25V38C50.75 36.8313 51.166 35.8306 51.999 34.999C52.832 34.1674 53.8327 33.7514 55 33.75H82.625ZM74.7803 44.7803C74.4341 44.7252 74.1192 44.8084 73.8359 45.0303L73.0332 45.625C72.7971 45.8 72.6633 46.0342 72.6318 46.3271C72.6004 46.62 72.6716 46.8929 72.8447 47.1465C73.1116 47.5579 73.3199 48.0056 73.4697 48.4893C73.6196 48.973 73.6943 49.4769 73.6943 50C73.695 51.4418 73.1875 52.6745 72.1719 53.6973C71.1563 54.7198 69.9323 55.2314 68.5 55.2314V54.2803C68.5 54.0901 68.4134 53.9467 68.2402 53.8516C68.0672 53.7566 67.9015 53.7726 67.7441 53.8994L64.793 56.1348C64.5412 56.325 64.415 56.5786 64.415 56.8955C64.4151 57.2125 64.5412 57.4661 64.793 57.6562L67.7441 59.8916C67.9015 60.0184 68.0671 60.0336 68.2402 59.9385C68.4133 59.8434 68.5 59.7009 68.5 59.5107V58.5596C70.861 58.5596 72.8678 57.7277 74.5205 56.0635C76.1733 54.3991 77 52.3777 77 50C77.0006 49.1282 76.8791 48.2955 76.6348 47.5029C76.3905 46.7105 76.0481 45.9735 75.6074 45.292C75.4028 45.006 75.1266 44.8354 74.7803 44.7803ZM69.2559 40.1084C69.0985 39.9816 68.9329 39.9664 68.7598 40.0615C68.5867 40.1566 68.5 40.2991 68.5 40.4893V41.4404C66.139 41.4404 64.1322 42.2723 62.4795 43.9365C60.8267 45.6009 60 47.6223 60 50C60 50.8718 60.1184 51.7045 60.3545 52.4971C60.5906 53.2894 60.9362 54.0266 61.3926 54.708C61.5972 55.0092 61.8734 55.1839 62.2197 55.2314C62.5659 55.2789 62.8808 55.1916 63.1641 54.9697L63.9668 54.375C64.2029 54.2013 64.3367 53.9674 64.3682 53.6738C64.3996 53.3804 64.3284 53.1071 64.1553 52.8535C63.8884 52.4421 63.6801 51.9944 63.5303 51.5107C63.3804 51.027 63.3057 50.5231 63.3057 50C63.305 48.5582 63.8125 47.3255 64.8281 46.3027C65.8437 45.2802 67.0677 44.7686 68.5 44.7686V45.7197C68.5 45.9099 68.5866 46.0533 68.7598 46.1484C68.9328 46.2434 69.0985 46.2274 69.2559 46.1006L72.207 43.8652C72.4588 43.675 72.585 43.4214 72.585 43.1045C72.5849 42.7875 72.4588 42.5339 72.207 42.3438L69.2559 40.1084ZM74.125 25.25C74.727 25.25 75.2317 25.4544 75.6396 25.8623C76.0476 26.2703 76.2514 26.7743 76.25 27.375C76.2486 27.9756 76.0442 28.4802 75.6377 28.8896C75.2311 29.2991 74.7271 29.5028 74.125 29.5H46.5V52.875C46.5 53.477 46.2956 53.9817 45.8877 54.3896C45.4797 54.7976 44.9757 55.0014 44.375 55C43.7729 55 43.2689 54.7957 42.8623 54.3877C42.4557 53.9797 42.2514 53.4757 42.25 52.875V29.5C42.25 28.3313 42.666 27.3306 43.499 26.499C44.332 25.6674 45.3327 25.2514 46.5 25.25H74.125Z" fill="url(#paint2_linear_8_2)"/>
</g>
</mask>
<g mask="url(#mask0_8_2)">
<rect x="14" y="14" width="102" height="96" fill="url(#paint3_linear_8_2)"/>
</g>
<defs>
<linearGradient id="paint0_linear_8_2" x1="64" y1="72" x2="64" y2="82" gradientUnits="userSpaceOnUse">
<stop stop-color="#557EE5"/>
<stop offset="1" stop-color="#E555E3"/>
</linearGradient>
<linearGradient id="paint1_linear_8_2" x1="63.5" y1="85" x2="63.5" y2="106" gradientUnits="userSpaceOnUse">
<stop stop-color="#557EE5"/>
<stop offset="1" stop-color="#E555E3"/>
</linearGradient>
<linearGradient id="paint2_linear_8_2" x1="64.5625" y1="25.25" x2="64.5625" y2="67.75" gradientUnits="userSpaceOnUse">
<stop stop-color="#557EE5"/>
<stop offset="1" stop-color="#E555E3"/>
</linearGradient>
<linearGradient id="paint3_linear_8_2" x1="112" y1="101" x2="23.5141" y2="28.6588" gradientUnits="userSpaceOnUse">
<stop stop-color="#569BD2"/>
<stop offset="1" stop-color="#D256B7"/>
</linearGradient>
<clipPath id="clip0_8_2">
<rect width="51" height="51" fill="white" transform="translate(38 21)"/>
</clipPath>
</defs>
</svg>
